<svg width="635" height="828" viewBox="0 0 635 828" fill="none" xmlns="http://www.w3.org/2000/svg">
<path d="M19.008 689.861C6.20798 681.328 -4.80001 670.448 -17.6853 655.045C-24.3736 646.86 -31.0013 638.625 -37.568 630.341C-57.3227 605.808 -69.7813 594.501 -82.6667 589.851C-93.3206 586.026 -102.019 578.126 -106.848 567.888C-111.677 557.65 -112.241 545.913 -108.416 535.259C-104.591 524.605 -96.6909 515.907 -86.4529 511.078C-76.2149 506.249 -64.4779 505.685 -53.824 509.509C-21.7387 521.029 -0.0213623 540.869 29.248 577.264C25.2373 572.272 43.7546 595.483 47.7226 600.261C55.8293 609.947 61.8027 615.835 66.496 618.949C75.2 624.795 91.5413 627.312 115.563 624.923C116.544 608.624 119.573 592.795 124.181 578.203C-2.45335 547.227 -74.1333 465.563 -74.1333 305.307C-74.1333 252.4 -58.3467 204.784 -28.992 164.848C-38.2933 126.704 -36.8853 80.5813 -16.1067 28.656C-13.7486 22.7823 -10.1132 17.5068 -5.46407 13.2119C-0.814927 8.91697 4.73153 5.71019 10.7733 3.824C14.2293 2.8 16.192 2.33067 19.648 1.81867C53.9093 -3.42933 102.293 9.07199 165.355 48.5813C202.935 39.7955 241.406 35.3858 280 35.44C318.912 35.44 357.568 39.8773 394.517 48.5813C457.536 8.77333 506.005 -3.728 540.523 1.81867C544.149 2.37333 547.221 3.09867 549.824 3.952C555.747 5.90514 561.17 9.13317 565.711 13.4088C570.252 17.6843 573.801 22.9035 576.107 28.6987C596.885 80.5813 598.293 126.704 588.992 164.805C618.475 204.741 634.133 252.059 634.133 305.307C634.133 465.605 562.709 547.013 436.075 578.032C441.408 595.739 444.181 615.536 444.181 636.912C444.185 675.54 444.015 714.168 443.669 752.795C453.251 754.885 461.821 760.212 467.935 767.88C474.049 775.548 477.336 785.088 477.24 794.895C477.145 804.702 473.675 814.176 467.413 821.724C461.15 829.272 452.479 834.432 442.859 836.336C394.261 846.064 358.251 813.637 358.251 771.269L358.336 752.24L358.549 722.16C358.763 691.952 358.848 665.072 358.848 636.912C358.848 607.173 351.04 587.76 340.715 578.885C312.512 554.565 326.805 508.272 363.755 504.133C490.347 489.925 548.8 440.901 548.8 305.307C548.8 264.56 535.488 230.896 509.845 202.736C504.443 196.816 500.817 189.493 499.383 181.608C497.949 173.722 498.766 165.592 501.739 158.149C508.821 140.485 511.851 117.317 505.835 89.2853L505.408 89.4133C484.459 95.344 458.048 108.187 426.133 129.904C420.987 133.396 415.139 135.722 409 136.717C402.861 137.712 396.578 137.352 390.592 135.664C354.577 125.692 317.37 120.682 280 120.773C242.027 120.773 204.395 125.851 169.408 135.707C163.444 137.382 157.187 137.738 151.071 136.75C144.956 135.763 139.129 133.456 133.995 129.989C101.909 108.357 75.3707 95.5573 54.2933 89.584C48.1493 117.445 51.1786 140.528 58.2186 158.149C61.1971 165.589 62.0204 173.716 60.5942 181.602C59.1681 189.487 55.5501 196.811 50.1546 202.736C24.6826 230.64 11.2 264.944 11.2 305.307C11.2 440.645 69.696 489.968 195.605 504.133C232.512 508.272 246.848 554.352 218.816 578.715C210.624 585.883 200.512 609.947 200.512 636.912V771.312C200.512 813.381 164.885 844.912 116.885 836.507C107.147 834.797 98.3054 829.758 91.8706 822.252C85.4358 814.746 81.8076 805.237 81.606 795.353C81.4045 785.468 84.6422 775.82 90.7657 768.057C96.8892 760.295 105.518 754.9 115.179 752.795V710.555C76.352 713.157 44.2666 706.8 19.008 689.861Z" fill="#59D9B5"/>
</svg>
